<svg width="107" height="123" viewBox="0 0 107 123" fill="none" xmlns="http://www.w3.org/2000/svg">
<circle cx="53.5" cy="69.5" r="23.5" stroke="white" stroke-width="10"/>
<path d="M57.5355 1.46447C55.5829 -0.488155 52.4171 -0.488155 50.4645 1.46447L18.6447 33.2843C16.692 35.2369 16.692 38.4027 18.6447 40.3553C20.5973 42.308 23.7631 42.308 25.7157 40.3553L54 12.0711L82.2843 40.3553C84.2369 42.308 87.4027 42.308 89.3553 40.3553C91.308 38.4027 91.308 35.2369 89.3553 33.2843L57.5355 1.46447ZM59 46L59 5L49 5L49 46L59 46Z" fill="white"/>
<path d="M102 69L82 69" stroke="white" stroke-width="10" stroke-linecap="round"/>
<path d="M25 69L5 69" stroke="white" stroke-width="10" stroke-linecap="round"/>
<path d="M54 98L54 118" stroke="white" stroke-width="10" stroke-linecap="round"/>
</svg>
